:SAMPLES-PER-SECOND 25
:FULLY-SPECIFIED
:DEGREES
50
root  5.45928 38.5045 -73.4317 16.1498 7.09757 3.39523
RightUpLeg  -37.3855 -4.96681 3.7475
RightLeg  23.6391 5.6742 2.49303
RightFoot  -2.27095 0.3519 -4.63047
RightToes  2.84633e-005 7.89722e-005 -0.000426369
Spine  7.09188 -1.90231 5.00193
Spine1  14.0478 -4.69391 5.63326
HEad  -7.71878 -6.54058 -5.75071
LeftShoulder1  -3.88251e-019 0 -3.92111e-022
LeftArm  -22.3263 -54.6326 -66.8067
LeftForeArm  12.464 2.25254 2.04991
LeftHand  -0.620592 -7.38543 5.99035
RightShoulder  7.45443e-017 -2.42657e-020 1.96277e-018
RightArm  3.92562 45.1573 60.8725
RightForeArm  12.4181 24.3128 4.67928
RightHand  -3.97793 11.5138 -27.0939
LeftUpLeg  -40.7755 6.17976 -1.46657
LeftLeg  70.5494 -0.2739 -0.00352213
LeftFoot  -10.3321 0.1148 -5.97475
LeftToes  3.91355e-005 3.11907e-005 -4.10385e-006
51
root  5.20464 38.6087 -72.589 16.1518 6.55456 4.85995
RightUpLeg  -36.3473 -4.30474 2.32466
RightLeg  24.6626 5.23123 2.39098
RightFoot  -3.91317 0.21416 -3.70401
RightToes  2.84633e-005 7.89722e-005 -0.000426369
Spine  7.15166 -1.882 4.78376
Spine1  14.2336 -4.77628 4.43251
HEad  -7.45536 -5.03011 -5.50643
LeftShoulder1  -3.88251e-019 0 -3.92111e-022
LeftArm  -23.4703 -51.4212 -65.0844
LeftForeArm  19.4989 0.840641 1.2185
LeftHand  -0.523097 -6.58481 5.40934
RightShoulder  7.45443e-017 -2.42657e-020 1.96277e-018
RightArm  2.2889 40.8625 63.1421
RightForeArm  11.6352 28.4999 5.53797
RightHand  -4.30215 11.036 -30.0489
LeftUpLeg  -49.0719 7.57186 -2.36985
LeftLeg  83.2457 -0.335271 -0.815194
LeftFoot  -10.4653 0.113977 -6.7085
LeftToes  3.91355e-005 3.11907e-005 -4.10385e-006
52
root  5.00436 38.8205 -71.771 15.4471 5.46997 6.31903
RightUpLeg  -34.5123 -4.38965 1.05332
RightLeg  25.3716 5.81654 2.77099
RightFoot  -4.55687 0.197227 -3.84554
RightToes  2.84633e-005 7.89722e-005 -0.000426369
Spine  7.29684 -1.87837 4.24427
Spine1  14.6507 -4.86282 2.85362
HEad  -6.7913 -3.56634 -4.21416
LeftShoulder1  -3.88251e-019 0 -3.92111e-022
LeftArm  -24.9866 -47.5947 -62.8357
LeftForeArm  18.8255 -2.25096 -0.145213
LeftHand  -0.465016 -7.0687 4.67674
RightShoulder  7.45443e-017 -2.42657e-020 1.96277e-018
RightArm  0.92736 38.3298 66.9533
RightForeArm  12.3926 28.616 5.52341
RightHand  -4.90107 11.676 -32.7666
LeftUpLeg  -56.6081 8.91974 -2.84579
LeftLeg  92.5379 0.00544376 -3.35434
LeftFoot  -9.74688 0.174826 -8.38455
LeftToes  3.91355e-005 3.11907e-005 -4.10385e-006
53
root  4.86791 39.0687 -70.9315 14.4522 4.08519 7.71666
RightUpLeg  -32.1808 -4.53763 -0.401332
RightLeg  25.7166 7.31314 3.59456
RightFoot  -4.95845 0.180116 -3.81192
RightToes  2.84633e-005 7.89722e-005 -0.000426369
Spine  7.55384 -1.41421 3.64297
Spine1  15.3211 -4.02606 1.43087
HEad  -6.13923 -3.06642 -3.1157
LeftShoulder1  -3.88251e-019 0 -3.92111e-022
LeftArm  -25.4031 -45.7779 -61.7182
LeftForeArm  20.132 -3.84471 -0.955504
LeftHand  -0.334516 -6.39869 3.63181
RightShoulder  7.45443e-017 -2.42657e-020 1.96277e-018
RightArm  0.793155 36.076 68.9367
RightForeArm  15.6556 27.8957 5.1759
RightHand  -5.82864 12.0093 -37.756
LeftUpLeg  -63.6661 10.3575 -2.57894
LeftLeg  99.1114 1.12918 -7.16193
LeftFoot  -7.95538 0.31483 -9.00663
LeftToes  3.91355e-005 3.11907e-005 -4.10385e-006
54
root  4.80813 39.3576 -70.033 13.254 2.92907 9.31335
RightUpLeg  -29.1328 -5.83275 -2.02593
RightLeg  25.3283 9.4234 4.60197
RightFoot  -5.46667 0.134942 -3.3546
RightToes  2.84633e-005 7.89722e-005 -0.000426369
Spine  7.56757 -1.01906 3.10968
Spine1  15.5092 -3.32341 0.283338
HEad  -4.70771 -2.58995 -2.66248
LeftShoulder1  -3.88251e-019 0 -3.92111e-022
LeftArm  -25.5453 -44.8736 -61.5485
LeftForeArm  23.4764 -2.92655 -0.997072
LeftHand  -0.310921 -6.13269 3.46781
RightShoulder  7.45443e-017 -2.42657e-020 1.96277e-018
RightArm  2.8564 33.8408 70.0398
RightForeArm  17.1229 26.8787 4.86429
RightHand  -6.32086 11.6737 -41.4881
LeftUpLeg  -70.1523 11.0248 -1.56365
LeftLeg  104 2.72318 -10.3998
LeftFoot  -5.82777 0.513706 -9.9278
LeftToes  3.91355e-005 3.11907e-005 -4.10385e-006
55
root  4.80587 39.6514 -69.067 11.3474 1.51397 10.9134
RightUpLeg  -25.3069 -6.55098 -3.98569
RightLeg  24.9621 11.1379 5.38535
RightFoot  -5.98243 0.109838 -3.20839
RightToes  2.84633e-005 7.89722e-005 -0.000426369
Spine  7.77841 -0.530539 2.38835
Spine1  16.0779 -2.28358 -1.12351
HEad  -2.9648 -2.0085 -1.88012
LeftShoulder1  -3.88251e-019 0 -3.92111e-022
LeftArm  -24.9108 -44.2052 -61.4347
LeftForeArm  25.6383 -1.83967 -1.28322
LeftHand  -0.204948 -6.09788 2.39567
RightShoulder  7.45443e-017 -2.42657e-020 1.96277e-018
RightArm  6.46845 32.105 70.6859
RightForeArm  16.0227 25.6401 4.64035
RightHand  -6.34216 11.06 -42.9955
LeftUpLeg  -75.0992 11.5418 1.23162
LeftLeg  108.13 5.0817 -14.3358
LeftFoot  -4.00422 0.737517 -11.0882
LeftToes  3.91355e-005 3.11907e-005 -4.10385e-006
